<?xml version="1.0" encoding="UTF-8"?>
<svg version="1.1" xmlns="http://www.w3.org/2000/svg" width="1024" height="1024">
<path d="M0 0 C337.92 0 675.84 0 1024 0 C1024 337.92 1024 675.84 1024 1024 C686.08 1024 348.16 1024 0 1024 C0 686.08 0 348.16 0 0 Z " fill="#F7F5F0" transform="translate(0,0)"/>
<path d="M0 0 C1.12662048 0.00054382 2.25324097 0.00108765 3.41400146 0.00164795 C21.02447198 0.04069417 37.9572604 0.80026649 55.25 4.375 C56.33796875 4.59462402 57.4259375 4.81424805 58.546875 5.04052734 C84.41095365 10.40231478 110.88807145 19.42919781 132.25 35.375 C132.7749707 35.76155762 133.29994141 36.14811523 133.84082031 36.54638672 C141.34369525 42.08673461 148.45969029 47.97401664 155.25 54.375 C155.96285156 55.02339844 156.67570312 55.67179687 157.41015625 56.33984375 C169.47171461 67.74469295 178.75618764 81.6527422 186.25 96.375 C186.56662598 96.98520996 186.88325195 97.59541992 187.20947266 98.22412109 C198.81031562 120.78972947 203.46301887 144.95181467 203.4375 170.1875 C203.43858765 171.2864006 203.43858765 171.2864006 203.43969727 172.40750122 C203.43875008 181.0874311 203.26131467 189.68114914 202.25 198.3125 C199.72400688 220.03649269 202.37681209 235.17672149 215.25 253.375 C215.98597412 254.41962402 215.98597412 254.41962402 216.73681641 255.48535156 C221.57059561 262.31572455 226.47986501 269.08778031 231.57421875 275.7265625 C246.31420071 294.93834987 246.31420071 294.93834987 245.65625 304.28125 C244.59137118 309.76947159 242.03099018 313.09575144 237.6875 316.375 C232.19454938 319.80694402 226.08492311 321.82672843 219.98999023 323.92773438 C212.47902696 326.1320015 212.47902696 326.1320015 207.25 331.375 C206.65736436 337.75509308 209.24321623 342.20804226 211.9375 347.83984375 C213.75758412 352.74215365 213.86789243 356.55766933 212.1875 361.5 C209.7853624 365.06446225 207.01782689 367.32312319 203.25 369.375 C202.59 369.375 201.93 369.375 201.25 369.375 C201.6109375 369.98085938 201.971875 370.58671875 202.34375 371.2109375 C205.66477782 377.20723773 207.87284838 382.48948615 206.25 389.375 C203.9007356 393.62683768 200.43959239 396.33699583 196.5 399.0625 C192.91350619 401.61050882 192.91350619 401.61050882 191.25 405.375 C190.75988665 411.65509647 191.14060453 417.87343254 192.0078125 424.1015625 C193.33230914 436.53474062 192.35753813 447.22258841 184.4375 457.3125 C176.23607888 465.95667136 165.94957892 468.22504242 154.453125 468.6484375 C140.37538083 468.93555006 127.07158762 468.05267935 113.1875 465.875 C98.91199485 463.62110259 98.91199485 463.62110259 84.5 462.6875 C83.73937256 462.6565625 82.97874512 462.625625 82.19506836 462.59375 C77.21022586 462.63974094 74.31657095 464.08453248 70.84008789 467.44067383 C65.44967245 473.99806083 63.2654251 481.83672556 61.5625 490 C61.35391357 490.96728027 61.14532715 491.93456055 60.93041992 492.93115234 C58.73543052 503.38835588 57.46543531 513.74830472 56.796875 524.41015625 C56.71590576 525.66812012 56.63493652 526.92608398 56.55151367 528.22216797 C56.39449195 530.74510117 56.25100274 533.26892002 56.12231445 535.79345703 C56.01729614 537.54118408 56.01729614 537.54118408 55.91015625 539.32421875 C55.85480713 540.36924561 55.79945801 541.41427246 55.74243164 542.4909668 C55.18782776 545.73912528 54.17564095 547.71911753 52.25 550.375 C44.05734027 554.47132986 30.80048201 550.63513069 22.1875 549.125 C21.44701416 548.99795685 20.70652832 548.8709137 19.94360352 548.74002075 C-111.01036105 526.21592523 -111.01036105 526.21592523 -159.75 502.375 C-159.56937012 501.74859619 -159.38874023 501.12219238 -159.20263672 500.47680664 C-152.75336208 478.01841974 -146.5599916 455.61620542 -143.75 432.375 C-143.61851562 431.3540625 -143.48703125 430.333125 -143.3515625 429.28125 C-143.0352783 426.30646888 -142.86618312 423.36500675 -142.75 420.375 C-142.70117676 419.17931396 -142.70117676 419.17931396 -142.65136719 417.95947266 C-141.66616057 390.22938944 -148.41244254 364.67399123 -161.75 340.375 C-162.08725098 339.74883789 -162.42450195 339.12267578 -162.77197266 338.47753906 C-167.25458347 330.1675828 -172.11705973 322.12743925 -177.125 314.125 C-204.69460686 269.8898832 -220.02591816 220.85365576 -211.75 168.375 C-211.62641113 167.59092773 -211.50282227 166.80685547 -211.37548828 165.99902344 C-206.68408828 137.53217688 -195.49301398 110.86464544 -178.75 87.375 C-178.33395508 86.79073242 -177.91791016 86.20646484 -177.48925781 85.60449219 C-171.63436093 77.49306882 -165.09148888 70.0830637 -158.17871094 62.86669922 C-156.86334782 61.49334504 -155.5599915 60.1085176 -154.2578125 58.72265625 C-113.9381852 16.88278071 -56.67195979 -0.10290952 0 0 Z " fill="#6B47FE" transform="translate(497.75,237.625)"/>
<path d="M0 0 C1.29019043 -0.00547852 2.58038086 -0.01095703 3.90966797 -0.01660156 C16.08418274 0.07354549 27.80731234 1.50847791 39.5 4.9375 C40.38840576 5.19692383 41.27681152 5.45634766 42.19213867 5.72363281 C63.60098353 12.2135881 81.91760019 23.11692616 98.25 38.3125 C99.08724609 39.08400391 99.08724609 39.08400391 99.94140625 39.87109375 C123.05034461 61.37152132 140.93404449 92.21926137 142.43652344 124.29443359 C142.57545639 128.7794693 142.6177477 133.2630046 142.625 137.75 C142.62717529 138.49044556 142.62935059 139.23089111 142.6315918 139.99377441 C142.6308835 142.11996199 142.61259759 144.24508664 142.5859375 146.37109375 C142.57095215 147.61173584 142.5559668 148.85237793 142.54052734 150.13061523 C142.26662103 153.13046482 141.89451183 154.82802553 140.25 157.3125 C137.02706714 159.6145949 134.13003676 159.78760654 130.25 159.3125 C127.55009338 157.51256226 125.7081135 156.228727 124.25 153.3125 C124.14284925 151.34579501 124.09445552 149.37576777 124.07421875 147.40625 C123.83075206 133.28612213 123.48333587 119.85451544 119.25 106.3125 C119.04246094 105.64009277 118.83492187 104.96768555 118.62109375 104.27490234 C108.77856295 73.42858764 86.59833691 48.62693565 58.5234375 32.93359375 C31.30200032 19.45281042 -0.07933543 14.95458074 -29.75 22.3125 C-30.44496582 22.47878906 -31.13993164 22.64507812 -31.85595703 22.81640625 C-51.78354575 27.7088354 -70.2414334 37.93726018 -85.75 51.3125 C-86.71808594 52.13492188 -87.68617188 52.95734375 -88.68359375 53.8046875 C-110.73437946 72.96593825 -125.62838519 101.42775972 -129.75 130.3125 C-129.96659114 135.06076013 -129.93512125 139.80975671 -129.9375 144.5625 C-129.95586914 146.47095703 -129.95586914 146.47095703 -129.97460938 148.41796875 C-130.00474171 167.88345563 -124.32906611 184.01867673 -110.8515625 198.328125 C-97.34580181 210.97909071 -79.54421205 217.05105804 -62.1875 222.25 C-60.67095825 222.71031616 -60.67095825 222.71031616 -59.1237793 223.17993164 C-49.18938654 226.06450495 -49.18938654 226.06450495 -39.36328125 223.73046875 C-35.78168903 221.31024489 -32.22434398 218.88457385 -28.75 216.3125 C-28.16428223 215.879375 -27.57856445 215.44625 -26.97509766 215 C-16.68081397 207.22068188 -8.21289981 198.44871193 -5.75 185.3125 C-5.45527045 182.28083524 -5.38030386 179.26335205 -5.3359375 176.21875 C-5.30947144 175.11031738 -5.30947144 175.11031738 -5.2824707 173.97949219 C-5.22009573 171.25737 -5.17343403 168.53490592 -5.125 165.8125 C-4.939375 156.655 -4.939375 156.655 -4.75 147.3125 C-18.28 147.3125 -31.81 147.3125 -45.75 147.3125 C-46.74 150.2825 -46.74 150.2825 -47.75 153.3125 C-52.02796519 159.72944778 -58.45166337 163.87972112 -65.75 166.3125 C-77.07638495 167.15865469 -85.35557811 166.79633162 -94.73046875 159.84375 C-100.59554816 154.74150608 -103.87217829 147.49582818 -105.16015625 139.890625 C-105.50016295 131.5530695 -102.80030032 123.57891382 -97.5546875 117.1328125 C-91.10574364 110.62803363 -83.63168617 107.04976113 -74.4375 106.9375 C-68.31845356 107.04875539 -63.95895694 108.14355281 -58.75 111.3125 C-58.05132812 111.725 -57.35265625 112.1375 -56.6328125 112.5625 C-50.97206138 116.3220932 -47.64760877 121.20996033 -44.75 127.3125 C-44.75 127.9725 -44.75 128.6325 -44.75 129.3125 C-31.55 129.3125 -18.35 129.3125 -4.75 129.3125 C-3.58108591 111.45886354 -3.58108591 111.45886354 -10.4375 105.5625 C-12.19844539 104.46316695 -13.96871999 103.3785691 -15.75 102.3125 C-21.60384354 97.05129765 -24.21571831 91.19359195 -25.06640625 83.421875 C-25.38906019 75.30348543 -24.0562044 68.54034545 -18.984375 62.0546875 C-13.29487697 55.9843963 -6.68035783 51.7981356 1.73046875 51.109375 C10.96949838 50.9493918 18.106513 52.64930088 25.39453125 58.51171875 C31.68448749 64.6162868 35.12802882 71.80338293 35.625 80.5625 C35.34644558 89.66194423 31.61541754 96.87133039 25.41796875 103.37109375 C22.74189758 105.76750343 19.96414667 107.62121444 16.81640625 109.33984375 C15.07082497 110.23423437 15.07082497 110.23423437 14.25 112.3125 C14.14349275 114.73625231 14.09585426 117.13247944 14.09228516 119.55688477 C14.08720444 120.30349869 14.08212372 121.05011261 14.07688904 121.8193512 C14.06617465 123.44427371 14.05755867 125.06921108 14.05076981 126.69415474 C14.03898046 129.27184356 14.01952413 131.84936486 13.99765015 134.42698669 C13.93605979 141.75733802 13.88212923 149.08767521 13.84863281 156.41821289 C13.82759688 160.90106145 13.79221479 165.3836094 13.74787521 169.86628532 C13.7337767 171.56974669 13.72500676 173.2732613 13.72182083 174.97677803 C13.6878728 191.40173889 13.6878728 191.40173889 10.25 199.3125 C14.16743892 199.23024287 18.08347352 199.11754015 22 199 C23.09183594 198.97744141 24.18367187 198.95488281 25.30859375 198.93164062 C36.93655029 198.553216 47.60887193 197.21600612 55.9375 188.5 C59.0164354 184.25606202 60.75625155 180.32863949 62 175.25 C60.91478434 170.99957199 58.28357755 170.19514653 54.64453125 168.01171875 C49.03084619 164.02810863 46.02960882 157.82169981 44.25 151.3125 C43.27431036 142.06912444 43.49373672 133.89848038 49.25 126.3125 C54.88400337 120.16248511 60.6047115 115.83333538 69.1171875 114.87890625 C70.45291811 114.85535972 71.78921808 114.85457077 73.125 114.875 C73.82753906 114.88329834 74.53007813 114.89159668 75.25390625 114.90014648 C84.17605925 115.18978662 90.05812813 118.39909652 96.5234375 124.375 C102.64189749 131.24096415 103.87796154 139.37530465 103.6484375 148.30859375 C103.16556469 155.47120711 100.05168558 161.41945511 95.09375 166.5390625 C90.74992545 170.15395758 86.79083666 172.25148872 81.25 173.3125 C81.3325 174.240625 81.415 175.16875 81.5 176.125 C81.45605451 187.00150965 74.6806446 196.77099512 67.625 204.5 C56.53467466 215.02427849 41.56449726 217.55540278 26.82421875 217.5078125 C26.01707932 217.50655869 25.20993988 217.50530487 24.37834167 217.50401306 C21.05640149 217.48808439 17.73667378 217.45854514 14.41577148 217.37109375 C2.55143184 216.87988646 2.55143184 216.87988646 -7.4609375 222.5390625 C-8.90486824 224.11729424 -10.33598004 225.70741466 -11.75 227.3125 C-13.73413086 228.90869141 -13.73413086 228.90869141 -15.61328125 230.203125 C-16.19013672 230.60273437 -16.76699219 231.00234375 -17.36132812 231.4140625 C-17.92271484 231.79304687 -18.48410156 232.17203125 -19.0625 232.5625 C-26.46421712 237.41527225 -26.46421712 237.41527225 -31.75 244.3125 C-31.85292555 245.79725164 -31.89585936 247.28639057 -31.90771484 248.7746582 C-31.92310806 250.16168694 -31.92310806 250.16168694 -31.93881226 251.57673645 C-31.94611359 252.57879623 -31.95341492 253.58085602 -31.9609375 254.61328125 C-31.98900823 256.72591918 -32.01767271 258.83854929 -32.046875 260.95117188 C-32.08813404 264.28897873 -32.12501295 267.6266399 -32.15136719 270.96459961 C-32.17897898 274.18113553 -32.2248547 277.39700286 -32.2734375 280.61328125 C-32.27669037 281.60926834 -32.27994324 282.60525543 -32.28329468 283.63142395 C-32.43846559 292.38112988 -32.43846559 292.38112988 -35.75 296.3125 C-38.94491759 297.90995879 -42.28209389 297.82066842 -45.75 297.3125 C-48.71858157 295.10509319 -49.57865791 293.82652627 -50.75 290.3125 C-50.85683117 287.36223141 -50.91116389 284.43128463 -50.92578125 281.48046875 C-50.94898177 279.6946497 -50.9730992 277.90884237 -50.99804688 276.12304688 C-51.03313265 273.31201352 -51.06249326 270.50141106 -51.07592773 267.69018555 C-51.09144381 264.9739177 -51.13167618 262.25890351 -51.17578125 259.54296875 C-51.17387283 258.70839645 -51.17196442 257.87382416 -51.16999817 257.01396179 C-51.28100336 251.69157652 -52.08341433 248.44768429 -55.75 244.3125 C-57.92914101 242.9950819 -57.92914101 242.9950819 -60.390625 242.40625 C-61.28845703 242.14070312 -62.18628906 241.87515625 -63.11132812 241.6015625 C-64.06458984 241.34117187 -65.01785156 241.08078125 -66 240.8125 C-67.99568696 240.2217662 -69.99047651 239.62799255 -71.984375 239.03125 C-73.45680664 238.598125 -73.45680664 238.598125 -74.95898438 238.15625 C-90.78169085 233.37289857 -105.80810401 226.72867045 -118.75 216.3125 C-119.59175781 215.64734375 -120.43351562 214.9821875 -121.30078125 214.296875 C-137.6026598 200.60633936 -147.70030054 180.0738229 -149.5690918 158.9519043 C-152.35037592 118.3736821 -139.05587434 82.0450882 -112.75 51.3125 C-112.21761719 50.65765625 -111.68523437 50.0028125 -111.13671875 49.328125 C-107.41551777 44.79447852 -103.26141424 41.04851492 -98.75 37.3125 C-97.98236328 36.66039551 -97.98236328 36.66039551 -97.19921875 35.99511719 C-81.81880165 22.95711994 -65.70572425 14.12874222 -46.75 7.3125 C-45.58726562 6.89097656 -44.42453125 6.46945312 -43.2265625 6.03515625 C-28.95427981 1.27173696 -14.95599959 0.03305786 0 0 Z " fill="#F5F3EF" transform="translate(497.75,288.6875)"/>
<path d="M0 0 C3.07469523 1.70251719 5.40613254 3.81226508 7 7 C7.37766377 12.00404498 7.11200434 14.99885156 4 19 C2.09180914 21.12836673 0.7416826 21.88589498 -2.08203125 22.3203125 C-6.11881639 22.52114758 -8.4092612 22.3519295 -11.9375 20.25 C-14.98332377 16.92728316 -15.85349415 15.13018796 -16.4375 10.625 C-15.85694294 5.8146701 -14.38607407 4.38607407 -11 1 C-7.51556578 -0.74221711 -3.80112955 -0.58675154 0 0 Z " fill="#6641FE" transform="translate(428,415)"/>
<path d="M0 0 C3.46620794 1.38648318 4.7385818 2.62530059 6.875 5.6875 C8.29010668 9.85420301 8.35621011 12.81978277 7 17 C5.125 20 5.125 20 2 22 C-1.84962832 22.82031654 -5.15771942 22.88192697 -9 22 C-11.88233293 20.12428334 -13.51761485 18.09131537 -15 15 C-15.61676489 11.02529292 -15.40752348 8.89655166 -13.75 5.25 C-9.8216978 0.19932575 -6.39895562 -0.91777849 0 0 Z " fill="#6641FE" transform="translate(575,422)"/>
<path d="M0 0 C4.120882 3.41945527 5.84257891 5.42578907 6.375 10.75 C6.34478584 14.06751516 5.77284903 15.85116622 3.6875 18.4375 C0.5827627 21.39783091 -1.05389437 21.87263963 -5.25 22.4375 C-9.58384533 21.93188471 -11.54880924 20.94175407 -14.671875 17.98046875 C-16.79039703 14.82137855 -16.77004787 12.05779251 -16.49609375 8.33984375 C-15.61421016 4.18040857 -13.48307591 2.16527393 -10.25 -0.375 C-6.70861808 -1.3587172 -3.46067987 -1.08489567 0 0 Z " fill="#6642FE" transform="translate(508,359)"/>
<path d="M0 0 C3.27939494 3.14821914 6.14462685 6.54903178 9.05078125 10.03515625 C11.07595947 12.07656836 12.89860534 13.01384415 15.4375 14.3125 C19 18 19 18 19 37 C5.8 37 -7.4 37 -21 37 C-20.67 36.01 -20.34 35.02 -20 34 C-1.685 34.495 -1.685 34.495 17 35 C17.96443707 19.01381174 17.96443707 19.01381174 11.8125 13.875 C10.20881615 12.91585894 8.60466691 11.95749546 7 11 C5.10546875 9.18359375 5.10546875 9.18359375 3.5 7.3125 C3.0359375 6.77238281 2.571875 6.23226563 2.09375 5.67578125 C0.87318106 3.80569526 0.41819551 2.18126978 0 0 Z " fill="#613BFE" transform="translate(474,381)"/>
<path d="M0 0 C0.33 0 0.66 0 1 0 C1 7.59 1 15.18 1 23 C0.67 23 0.34 23 0 23 C0 20.03 0 17.06 0 14 C-0.66 14 -1.32 14 -2 14 C-1.03644647 4.58997722 -1.03644647 4.58997722 0 0 Z " fill="#EFECF0" transform="translate(355,635)"/>
<path d="M0 0 C0 0.33 0 0.66 0 1 C-8.415 2.485 -8.415 2.485 -17 4 C-16.67 3.01 -16.34 2.02 -16 1 C-10.59255982 0.22750855 -5.46137814 -0.09752461 0 0 Z " fill="#ECE6F2" transform="translate(452,241)"/>
<path d="M0 0 C1.0625 1.875 1.0625 1.875 2 4 C1.67 4.66 1.34 5.32 1 6 C2.32 6.66 3.64 7.32 5 8 C0.25 7.25 0.25 7.25 -2 5 C-1.34 3.35 -0.68 1.7 0 0 Z " fill="#542DFE" transform="translate(340,734)"/>
<path d="M0 0 C3.91211733 1.15585285 6.8745041 2.35534962 10 5 C5 4 5 4 0 3 C0 2.01 0 1.02 0 0 Z " fill="#EDE8EF" transform="translate(556,301)"/>
</svg>
